<svg width="24" height="24" viewBox="0 0 24 24" fill="none" xmlns="http://www.w3.org/2000/svg">
<path d="M16.7919 3.90397C18.1064 3.97664 19.3388 4.56587 20.2207 5.54328C21.1025 6.52068 21.5624 7.80701 21.4999 9.12197C21.4999 12.194 18.8479 14.081 16.3029 16.344C13.7909 18.587 12.4379 19.813 11.9999 20.096C11.5229 19.787 9.85692 18.273 7.69692 16.344C5.14092 14.072 2.49992 12.167 2.49992 9.12197C2.43749 7.80701 2.89731 6.52068 3.77918 5.54328C4.66105 4.56587 5.89349 3.97664 7.20792 3.90397C7.93607 3.8819 8.65748 4.04915 9.30163 4.38937C9.94579 4.72959 10.4906 5.23113 10.8829 5.84497C11.7229 7.01997 11.8629 7.60797 12.0029 7.60797C12.1429 7.60797 12.2809 7.01997 13.1129 5.84197C13.503 5.22529 14.048 4.72176 14.6936 4.38169C15.3392 4.04161 16.0627 3.87688 16.7919 3.90397ZM16.7919 1.90397C15.8839 1.8749 14.9809 2.05106 14.1504 2.41932C13.3198 2.78759 12.583 3.33848 11.9949 4.03097C11.4073 3.3405 10.672 2.79088 9.84347 2.42272C9.0149 2.05457 8.1142 1.87729 7.20792 1.90397C5.36279 1.97612 3.6213 2.77596 2.36426 4.12857C1.10722 5.48118 0.436916 7.27651 0.499921 9.12197C0.499921 12.732 3.04992 14.949 5.51492 17.092C5.79792 17.338 6.08392 17.586 6.36792 17.839L7.39492 18.757C8.51496 19.8227 9.68919 20.8301 10.9129 21.775C11.2367 21.9846 11.6142 22.0962 11.9999 22.0962C12.3856 22.0962 12.7631 21.9846 13.0869 21.775C14.3496 20.8012 15.56 19.7614 16.7129 18.66L17.6349 17.836C17.9279 17.576 18.2249 17.317 18.5199 17.062C20.8539 15.037 23.4999 12.742 23.4999 9.12197C23.5629 7.27651 22.8926 5.48118 21.6356 4.12857C20.3785 2.77596 18.6371 1.97612 16.7919 1.90397Z" fill="black"/>
</svg>
