<svg width="21" height="21" viewBox="0 0 21 21" fill="none" xmlns="http://www.w3.org/2000/svg">
<path d="M14.2297 3.30832C15.3436 3.3699 16.388 3.86923 17.1353 4.69751C17.8826 5.52579 18.2723 6.61586 18.2194 7.7302C18.2194 10.3335 15.972 11.9326 13.8153 13.8503C11.6865 15.7511 10.54 16.79 10.1688 17.0299C9.76457 16.768 8.35275 15.485 6.52231 13.8503C4.35629 11.925 2.11823 10.3106 2.11823 7.7302C2.06532 6.61586 2.45499 5.52579 3.20231 4.69751C3.94963 3.86923 4.99403 3.3699 6.10792 3.30832C6.72497 3.28962 7.33631 3.43135 7.88219 3.71966C8.42806 4.00797 8.88978 4.43299 9.22222 4.95317C9.93406 5.9489 10.0527 6.44719 10.1713 6.44719C10.29 6.44719 10.4069 5.9489 11.112 4.95063C11.4425 4.42804 11.9044 4.00134 12.4515 3.71314C12.9986 3.42495 13.6117 3.28536 14.2297 3.30832ZM14.2297 1.61346C13.4601 1.58882 12.695 1.7381 11.9911 2.05018C11.2873 2.36226 10.663 2.82911 10.1646 3.41594C9.66658 2.83081 9.0435 2.36505 8.34135 2.05307C7.6392 1.74108 6.87593 1.59085 6.10792 1.61346C4.5443 1.6746 3.06852 2.3524 2.00327 3.49864C0.938015 4.64489 0.36998 6.1663 0.423372 7.7302C0.423372 10.7894 2.58431 12.6682 4.67322 14.4842C4.91304 14.6927 5.15541 14.9028 5.39608 15.1172L6.26639 15.8952C7.21554 16.7983 8.21061 17.652 9.24764 18.4527C9.52202 18.6304 9.84192 18.7249 10.1688 18.7249C10.4957 18.7249 10.8156 18.6304 11.0899 18.4527C12.16 17.6275 13.1857 16.7464 14.1627 15.813L14.944 15.1147C15.1923 14.8944 15.444 14.6749 15.694 14.4588C17.6719 12.7427 19.9142 10.7979 19.9142 7.7302C19.9676 6.1663 19.3996 4.64489 18.3343 3.49864C17.2691 2.3524 15.7933 1.6746 14.2297 1.61346Z" fill="#262626"/>
</svg>
