<svg width="21" height="21" viewBox="0 0 21 21" fill="none" xmlns="http://www.w3.org/2000/svg">
  <path d="M14.23 1.61c1.56.06 3.04.74 4.1 1.89 1.07 1.15 1.64 2.67 1.58 4.23 0 3.07-2.24 5.02-4.22 6.73-.25.22-.5.44-.75.66l-.78.7a34.9 34.9 0 0 1-3.07 2.63 1.7 1.7 0 0 1-1.84 0 34.9 34.9 0 0 1-2.98-2.56l-.87-.78-.72-.63C2.58 12.67.42 10.79.42 7.73A5.8 5.8 0 0 1 2 3.5a5.8 5.8 0 0 1 4.1-1.89c.77-.02 1.53.13 2.24.44.7.31 1.32.78 1.82 1.37.5-.59 1.12-1.05 1.83-1.37a5.8 5.8 0 0 1 2.24-.44Z" fill="#ed4956"/>
</svg>
