<svg width="115" height="32" viewBox="0 0 115 32" fill="none" xmlns="http://www.w3.org/2000/svg">
<rect width="114.05" height="32" rx="8" fill="#0095F6"/>
<path d="M32.3994 10.5469V20.5H30.5127L26.2812 13.5957V20.5H24.4014V10.5469H26.2812L30.5264 17.458V10.5469H32.3994ZM37.499 20.6367C36.9385 20.6367 36.4349 20.5456 35.9883 20.3633C35.5417 20.181 35.1611 19.9281 34.8467 19.6045C34.5368 19.2764 34.2975 18.8958 34.1289 18.4629C33.9648 18.0254 33.8828 17.556 33.8828 17.0547V16.7812C33.8828 16.2116 33.9648 15.6943 34.1289 15.2295C34.293 14.7601 34.5254 14.3568 34.8262 14.0195C35.127 13.6823 35.487 13.4225 35.9062 13.2402C36.3255 13.0579 36.7881 12.9668 37.2939 12.9668C37.818 12.9668 38.2806 13.0557 38.6816 13.2334C39.0827 13.4066 39.4176 13.6527 39.6865 13.9717C39.9554 14.2907 40.1582 14.6735 40.2949 15.1201C40.4316 15.5622 40.5 16.0521 40.5 16.5898V17.3486H34.7031V16.1045H38.7227V15.9678C38.7135 15.6807 38.6589 15.4186 38.5586 15.1816C38.4583 14.9401 38.3034 14.7487 38.0938 14.6074C37.8841 14.4616 37.613 14.3887 37.2803 14.3887C37.0114 14.3887 36.7767 14.4479 36.5762 14.5664C36.3802 14.6803 36.2161 14.8444 36.084 15.0586C35.9564 15.2682 35.8607 15.5189 35.7969 15.8105C35.7331 16.1022 35.7012 16.4258 35.7012 16.7812V17.0547C35.7012 17.3646 35.7422 17.6517 35.8242 17.916C35.9108 18.1803 36.0361 18.4105 36.2002 18.6064C36.3688 18.7979 36.5693 18.9482 36.8018 19.0576C37.0387 19.1624 37.3076 19.2148 37.6084 19.2148C37.9867 19.2148 38.3285 19.1419 38.6338 18.9961C38.9437 18.8457 39.2126 18.6247 39.4404 18.333L40.3496 19.2764C40.1947 19.5042 39.985 19.723 39.7207 19.9326C39.4609 20.1423 39.1465 20.3132 38.7773 20.4453C38.4082 20.5729 37.9821 20.6367 37.499 20.6367ZM43.7676 18.7227L45.3877 13.1035H46.5361L46.1943 15.0449L44.5605 20.5H43.5693L43.7676 18.7227ZM42.8721 13.1035L44.0889 18.7363L44.1982 20.5H43.0566L41.1152 13.1035H42.8721ZM48.04 18.6543L49.2295 13.1035H50.9795L49.0518 20.5H47.9102L48.04 18.6543ZM46.7139 13.1035L48.3203 18.668L48.5322 20.5H47.541L45.8936 15.0449L45.5586 13.1035H46.7139ZM57.3369 14.5254V23.3438H55.5254V13.1035H57.2002L57.3369 14.5254ZM62.0879 16.7266V16.8701C62.0879 17.4079 62.0241 17.9069 61.8965 18.3672C61.7734 18.8229 61.5911 19.2217 61.3496 19.5635C61.1081 19.9007 60.8073 20.165 60.4473 20.3564C60.0918 20.5433 59.6816 20.6367 59.2168 20.6367C58.7611 20.6367 58.3646 20.5501 58.0273 20.377C57.6901 20.1992 57.4053 19.9486 57.1729 19.625C56.9404 19.3014 56.7536 18.9255 56.6123 18.4971C56.4756 18.0641 56.373 17.5924 56.3047 17.082V16.624C56.373 16.0817 56.4756 15.5895 56.6123 15.1475C56.7536 14.7008 56.9404 14.3158 57.1729 13.9922C57.4053 13.6641 57.6878 13.4111 58.0205 13.2334C58.3577 13.0557 58.752 12.9668 59.2031 12.9668C59.6725 12.9668 60.085 13.0557 60.4404 13.2334C60.8005 13.4111 61.1035 13.6663 61.3496 13.999C61.5957 14.3317 61.7803 14.7282 61.9033 15.1885C62.0264 15.6488 62.0879 16.1615 62.0879 16.7266ZM60.2764 16.8701V16.7266C60.2764 16.3984 60.2467 16.0954 60.1875 15.8174C60.1283 15.5348 60.0371 15.2887 59.9141 15.0791C59.791 14.8649 59.6315 14.6986 59.4355 14.5801C59.2396 14.4616 59.0026 14.4023 58.7246 14.4023C58.4466 14.4023 58.2074 14.4479 58.0068 14.5391C57.8063 14.6302 57.6423 14.7601 57.5146 14.9287C57.387 15.0973 57.2868 15.2979 57.2139 15.5303C57.1455 15.7581 57.0999 16.0111 57.0771 16.2891V17.4238C57.1182 17.7611 57.1979 18.0641 57.3164 18.333C57.4349 18.6019 57.6081 18.8161 57.8359 18.9756C58.0684 19.1351 58.3691 19.2148 58.7383 19.2148C59.0163 19.2148 59.2533 19.1533 59.4492 19.0303C59.6452 18.9072 59.8047 18.7386 59.9277 18.5244C60.0508 18.3057 60.1396 18.055 60.1943 17.7725C60.249 17.4899 60.2764 17.1891 60.2764 16.8701ZM65.1777 10V20.5H63.3662V10H65.1777ZM64.8906 16.5352H64.3574C64.3574 16.0202 64.4258 15.5462 64.5625 15.1133C64.6992 14.6803 64.8929 14.3044 65.1436 13.9854C65.3942 13.6618 65.6927 13.4111 66.0391 13.2334C66.39 13.0557 66.7773 12.9668 67.2012 12.9668C67.5658 12.9668 67.8962 13.0192 68.1924 13.124C68.4932 13.2243 68.7507 13.3861 68.9648 13.6094C69.179 13.8327 69.3431 14.1243 69.457 14.4844C69.5755 14.8398 69.6348 15.2728 69.6348 15.7832V20.5H67.8164V15.7695C67.8164 15.4277 67.7663 15.1589 67.666 14.9629C67.5658 14.7624 67.4222 14.6188 67.2354 14.5322C67.0531 14.4456 66.8275 14.4023 66.5586 14.4023C66.2669 14.4023 66.0163 14.4593 65.8066 14.5732C65.597 14.6826 65.4238 14.8353 65.2871 15.0312C65.1549 15.2272 65.0547 15.4528 64.9863 15.708C64.9225 15.9632 64.8906 16.2389 64.8906 16.5352ZM70.9062 16.877V16.7334C70.9062 16.1911 70.9837 15.6921 71.1387 15.2363C71.2936 14.776 71.5192 14.3773 71.8154 14.04C72.1117 13.7028 72.474 13.4408 72.9023 13.2539C73.3307 13.0625 73.8184 12.9668 74.3652 12.9668C74.9212 12.9668 75.4134 13.0625 75.8418 13.2539C76.2747 13.4408 76.6393 13.7028 76.9355 14.04C77.2318 14.3773 77.4574 14.776 77.6123 15.2363C77.7673 15.6921 77.8447 16.1911 77.8447 16.7334V16.877C77.8447 17.4147 77.7673 17.9137 77.6123 18.374C77.4574 18.8298 77.2318 19.2285 76.9355 19.5703C76.6393 19.9076 76.277 20.1696 75.8486 20.3564C75.4202 20.5433 74.9303 20.6367 74.3789 20.6367C73.832 20.6367 73.3421 20.5433 72.9092 20.3564C72.4762 20.1696 72.1117 19.9076 71.8154 19.5703C71.5192 19.2285 71.2936 18.8298 71.1387 18.374C70.9837 17.9137 70.9062 17.4147 70.9062 16.877ZM72.7109 16.7334V16.877C72.7109 17.2005 72.7428 17.5036 72.8066 17.7861C72.8704 18.0687 72.9684 18.3171 73.1006 18.5312C73.2327 18.7454 73.4036 18.9141 73.6133 19.0371C73.8275 19.1556 74.0827 19.2148 74.3789 19.2148C74.6706 19.2148 74.9212 19.1556 75.1309 19.0371C75.3405 18.9141 75.5114 18.7454 75.6436 18.5312C75.7803 18.3171 75.8805 18.0687 75.9443 17.7861C76.0081 17.5036 76.04 17.2005 76.04 16.877V16.7334C76.04 16.4144 76.0081 16.1159 75.9443 15.8379C75.8805 15.5553 75.7803 15.307 75.6436 15.0928C75.5114 14.874 75.3382 14.7031 75.124 14.5801C74.9144 14.4525 74.6615 14.3887 74.3652 14.3887C74.0736 14.3887 73.8229 14.4525 73.6133 14.5801C73.4036 14.7031 73.2327 14.874 73.1006 15.0928C72.9684 15.307 72.8704 15.5553 72.8066 15.8379C72.7428 16.1159 72.7109 16.4144 72.7109 16.7334ZM82.6572 13.1035V14.4023H78.4189V13.1035H82.6572ZM79.5537 11.2852H81.3652V18.3672C81.3652 18.5859 81.3949 18.7546 81.4541 18.873C81.5133 18.9915 81.6022 19.0713 81.7207 19.1123C81.8392 19.1533 81.9805 19.1738 82.1445 19.1738C82.263 19.1738 82.3724 19.167 82.4727 19.1533C82.5729 19.1396 82.6572 19.126 82.7256 19.1123L82.7324 20.4658C82.582 20.516 82.4111 20.557 82.2197 20.5889C82.0329 20.6208 81.821 20.6367 81.584 20.6367C81.1784 20.6367 80.8229 20.5684 80.5176 20.4316C80.2122 20.2904 79.9753 20.0648 79.8066 19.7549C79.638 19.4404 79.5537 19.0257 79.5537 18.5107V11.2852ZM83.3613 16.877V16.7334C83.3613 16.1911 83.4388 15.6921 83.5938 15.2363C83.7487 14.776 83.9743 14.3773 84.2705 14.04C84.5667 13.7028 84.929 13.4408 85.3574 13.2539C85.7858 13.0625 86.2734 12.9668 86.8203 12.9668C87.3763 12.9668 87.8685 13.0625 88.2969 13.2539C88.7298 13.4408 89.0944 13.7028 89.3906 14.04C89.6868 14.3773 89.9124 14.776 90.0674 15.2363C90.2223 15.6921 90.2998 16.1911 90.2998 16.7334V16.877C90.2998 17.4147 90.2223 17.9137 90.0674 18.374C89.9124 18.8298 89.6868 19.2285 89.3906 19.5703C89.0944 19.9076 88.7321 20.1696 88.3037 20.3564C87.8753 20.5433 87.3854 20.6367 86.834 20.6367C86.2871 20.6367 85.7972 20.5433 85.3643 20.3564C84.9313 20.1696 84.5667 19.9076 84.2705 19.5703C83.9743 19.2285 83.7487 18.8298 83.5938 18.374C83.4388 17.9137 83.3613 17.4147 83.3613 16.877ZM85.166 16.7334V16.877C85.166 17.2005 85.1979 17.5036 85.2617 17.7861C85.3255 18.0687 85.4235 18.3171 85.5557 18.5312C85.6878 18.7454 85.8587 18.9141 86.0684 19.0371C86.2826 19.1556 86.5378 19.2148 86.834 19.2148C87.1257 19.2148 87.3763 19.1556 87.5859 19.0371C87.7956 18.9141 87.9665 18.7454 88.0986 18.5312C88.2354 18.3171 88.3356 18.0687 88.3994 17.7861C88.4632 17.5036 88.4951 17.2005 88.4951 16.877V16.7334C88.4951 16.4144 88.4632 16.1159 88.3994 15.8379C88.3356 15.5553 88.2354 15.307 88.0986 15.0928C87.9665 14.874 87.7933 14.7031 87.5791 14.5801C87.3695 14.4525 87.1165 14.3887 86.8203 14.3887C86.5286 14.3887 86.278 14.4525 86.0684 14.5801C85.8587 14.7031 85.6878 14.874 85.5557 15.0928C85.4235 15.307 85.3255 15.5553 85.2617 15.8379C85.1979 16.1159 85.166 16.4144 85.166 16.7334Z" fill="white"/>
</svg>
