<svg width="21" height="21" viewBox="0 0 21 21" fill="none" xmlns="http://www.w3.org/2000/svg">
<path d="M13.4144 9.319C13.2188 9.319 13.0276 9.377 12.865 9.48566C12.7024 9.59433 12.5756 9.74878 12.5007 9.92949C12.4259 10.1102 12.4063 10.309 12.4445 10.5009C12.4826 10.6927 12.5768 10.8689 12.7151 11.0072C12.8534 11.1455 13.0296 11.2397 13.2215 11.2779C13.4133 11.316 13.6122 11.2965 13.7929 11.2216C13.9736 11.1468 14.128 11.02 14.2367 10.8574C14.3454 10.6947 14.4034 10.5035 14.4034 10.3079C14.4034 10.0457 14.2992 9.79412 14.1137 9.60865C13.9282 9.42319 13.6767 9.319 13.4144 9.319ZM7.90613 10.3079C7.90613 10.1123 7.84811 9.92108 7.7394 9.75843C7.6307 9.59578 7.4762 9.46902 7.29544 9.39419C7.11469 9.31937 6.9158 9.29983 6.72394 9.33806C6.53208 9.37629 6.35587 9.47056 6.21759 9.60895C6.07932 9.74734 5.9852 9.92364 5.94713 10.1155C5.90907 10.3074 5.92878 10.5063 6.00376 10.687C6.07874 10.8677 6.20563 11.0221 6.36837 11.1306C6.53111 11.2392 6.7224 11.2971 6.91803 11.2969C7.18017 11.2967 7.43149 11.1924 7.61678 11.0069C7.80206 10.8215 7.90613 10.5701 7.90613 10.3079ZM12.2814 13.0536C12.0117 13.3436 11.6853 13.575 11.3223 13.7334C10.9594 13.8919 10.5678 13.9739 10.1717 13.9744C9.77574 13.975 9.38386 13.8941 9.02048 13.7367C8.6571 13.5793 8.33 13.3488 8.05952 13.0595C7.91837 12.8846 7.7135 12.7728 7.48998 12.7489C7.26645 12.725 7.04258 12.7909 6.86761 12.932C6.69264 13.0731 6.58091 13.278 6.55699 13.5015C6.53307 13.7251 6.59893 13.9489 6.74007 14.1239C7.16925 14.6098 7.69681 14.9989 8.28778 15.2654C8.87876 15.5319 9.51963 15.6697 10.1679 15.6697C10.8162 15.6697 11.4571 15.5319 12.0481 15.2654C12.639 14.9989 13.1666 14.6098 13.5958 14.1239C13.7313 13.9491 13.7931 13.7282 13.768 13.5084C13.7429 13.2887 13.6329 13.0874 13.4614 12.9477C13.2899 12.8079 13.0706 12.7408 12.8503 12.7606C12.6299 12.7804 12.4261 12.8855 12.2822 13.0536H12.2814ZM10.1688 0.426088C8.2413 0.426088 6.35713 0.997647 4.7545 2.06849C3.15187 3.13933 1.90278 4.66135 1.16517 6.4421C0.427562 8.22284 0.234571 10.1823 0.6106 12.0727C0.986629 13.9632 1.91479 15.6996 3.27771 17.0626C4.64063 18.4255 6.3771 19.3536 8.26753 19.7297C10.158 20.1057 12.1174 19.9127 13.8982 19.1751C15.6789 18.4375 17.2009 17.1884 18.2718 15.5858C19.3426 13.9831 19.9142 12.099 19.9142 10.1715C19.9113 7.58776 18.8836 5.11067 17.0566 3.28368C15.2296 1.45669 12.7525 0.429004 10.1688 0.426088ZM10.1688 18.2221C8.57651 18.2221 7.02002 17.7499 5.69611 16.8653C4.3722 15.9807 3.34034 14.7234 2.73101 13.2523C2.12168 11.7813 1.96226 10.1626 2.27289 8.60092C2.58352 7.03926 3.35026 5.60479 4.47616 4.4789C5.60205 3.35301 7.03652 2.58627 8.59818 2.27563C10.1598 1.965 11.7785 2.12443 13.2496 2.73376C14.7206 3.34309 15.978 4.37495 16.8626 5.69885C17.7472 7.02276 18.2193 8.57926 18.2193 10.1715C18.2171 12.306 17.3682 14.3524 15.8589 15.8616C14.3496 17.3709 12.3032 18.2198 10.1688 18.2221Z" fill="black"/>
</svg>
